<svg width="40" height="25" viewBox="0 0 40 25" fill="none" xmlns="http://www.w3.org/2000/svg">

<path fill-rule="evenodd" clip-rule="evenodd" d="M19.6307 24.8428H22.0559C22.0559 24.8428 22.7835 24.7107 23.1473 24.3143C23.5111 23.9178 23.5111 23.125 23.5111 23.125C23.5111 23.125 23.5111 19.6893 24.9662 19.1607C26.4213 18.6321 28.3615 22.5964 30.3017 24.05C31.7568 25.2393 32.8481 24.975 32.8481 24.975L38.1836 24.8428C38.1836 24.8428 40.9726 24.7107 39.6387 22.2C39.5175 22.0678 38.9112 20.4821 35.6371 17.1786C32.2418 13.7428 32.7269 14.4036 36.7285 8.45714C39.1537 4.88928 40.1238 2.775 39.8812 1.71785C39.6387 0.792856 37.8198 1.05714 37.8198 1.05714H31.7568C31.7568 1.05714 31.2717 0.924999 31.0292 1.18928C30.6654 1.45357 30.5442 1.85 30.5442 1.85C30.5442 1.85 29.5741 4.625 28.3615 7.00357C25.6938 11.8928 24.6024 12.1571 24.2386 11.8928C23.2685 11.2321 23.5111 8.98571 23.5111 7.53214C23.5111 2.775 24.2386 0.792855 22.1772 0.264284C21.5709 0.132141 21.0859 0 19.3882 0C17.2055 0 15.3866 -5.11961e-07 14.4165 0.528571C13.689 0.924999 13.2039 1.71785 13.5677 1.71785C13.9315 1.71785 14.9016 1.98214 15.3866 2.64286C15.8717 3.83214 15.8717 5.81428 15.8717 5.81428C15.8717 5.81428 16.2354 11.4964 15.0228 12.1571C14.174 12.6857 13.0827 11.6286 10.6575 7.13571C9.44485 4.88928 8.47476 2.24643 8.47476 2.24643C8.47476 2.24643 8.3535 1.71786 7.98972 1.45357C7.62594 1.18929 7.01964 1.05714 7.01964 1.05714H1.32039C1.32039 1.05714 0.471569 1.05714 0.107787 1.45357C-0.134734 1.85 0.107787 2.51071 0.107787 2.51071C0.107787 2.51071 4.59443 13.875 9.68737 19.6893C14.4165 25.2393 19.6307 24.8428 19.6307 24.8428V24.8428Z" fill="#FF0C0C" fill-opacity="0.78"/>
</svg>
