<svg width="27" height="24" viewBox="0 0 27 24" fill="none" xmlns="http://www.w3.org/2000/svg">
<path fill-rule="evenodd" clip-rule="evenodd" d="M0.75 11.9999C0.749999 11.5689 0.917912 11.1556 1.2168 10.8509C1.51568 10.5461 1.92106 10.3749 2.34375 10.3749L20.8089 10.3749L13.9654 3.4004C13.8172 3.24931 13.6997 3.06995 13.6195 2.87255C13.5393 2.67514 13.498 2.46357 13.498 2.2499C13.498 2.03623 13.5393 1.82465 13.6195 1.62725C13.6997 1.42985 13.8172 1.25048 13.9654 1.0994C14.1136 0.948312 14.2895 0.828466 14.4831 0.746698C14.6767 0.664932 14.8842 0.622848 15.0937 0.622848C15.3033 0.622848 15.5108 0.664932 15.7044 0.746698C15.898 0.828466 16.0739 0.948312 16.2221 1.0994L25.7846 10.8494C25.933 11.0003 26.0508 11.1797 26.1311 11.3771C26.2115 11.5745 26.2528 11.7862 26.2528 11.9999C26.2528 12.2136 26.2115 12.4253 26.1311 12.6227C26.0508 12.8201 25.933 12.9995 25.7846 13.1504L16.2221 22.9004C16.0739 23.0515 15.898 23.1713 15.7044 23.2531C15.5108 23.3349 15.3033 23.377 15.0938 23.377C14.8842 23.377 14.6767 23.3349 14.4831 23.2531C14.2895 23.1713 14.1136 23.0515 13.9654 22.9004C13.6661 22.5953 13.498 22.1814 13.498 21.7499C13.498 21.5362 13.5393 21.3247 13.6195 21.1273C13.6997 20.9298 13.8172 20.7505 13.9654 20.5994L20.8089 13.6249L2.34375 13.6249C1.92106 13.6249 1.51568 13.4537 1.2168 13.1489C0.917912 12.8442 0.75 12.4309 0.75 11.9999Z" fill="#808080"/>
</svg>
