<svg width="27" height="24" viewBox="0 0 27 24" fill="none" xmlns="http://www.w3.org/2000/svg">
<path fill-rule="evenodd" clip-rule="evenodd" d="M26.25 12.0001C26.25 12.4311 26.0821 12.8444 25.7832 13.1491C25.4843 13.4539 25.0789 13.6251 24.6562 13.6251L6.19106 13.6251L13.0346 20.5996C13.1828 20.7507 13.3003 20.93 13.3805 21.1275C13.4607 21.3249 13.502 21.5364 13.502 21.7501C13.502 21.9638 13.4607 22.1753 13.3805 22.3727C13.3003 22.5701 13.1828 22.7495 13.0346 22.9006C12.8864 23.0517 12.7105 23.1715 12.5169 23.2533C12.3233 23.3351 12.1158 23.3772 11.9062 23.3772C11.6967 23.3772 11.4892 23.3351 11.2956 23.2533C11.102 23.1715 10.9261 23.0517 10.7779 22.9006L1.21537 13.1506C1.06695 12.9997 0.949197 12.8203 0.868852 12.6229C0.788507 12.4255 0.74715 12.2138 0.74715 12.0001C0.74715 11.7864 0.788507 11.5747 0.868852 11.3773C0.949197 11.1799 1.06695 11.0005 1.21537 10.8496L10.7779 1.0996C10.9261 0.948513 11.102 0.828665 11.2956 0.746898C11.4892 0.665131 11.6967 0.623046 11.9062 0.623046C12.1158 0.623046 12.3233 0.665131 12.5169 0.746898C12.7105 0.828665 12.8864 0.948514 13.0346 1.0996C13.3339 1.40473 13.502 1.81858 13.502 2.2501C13.502 2.46377 13.4607 2.67534 13.3805 2.87275C13.3003 3.07015 13.1828 3.24951 13.0346 3.4006L6.19106 10.3751L24.6562 10.3751C25.0789 10.3751 25.4843 10.5463 25.7832 10.8511C26.0821 11.1558 26.25 11.5691 26.25 12.0001Z" fill="#808080"/>
</svg>
