<svg width="27" height="27" viewBox="0 0 27 27" fill="none" xmlns="http://www.w3.org/2000/svg">
<path d="M26.5477 8.11146C26.533 7.00695 26.3262 5.91342 25.9366 4.87979C25.5988 4.00793 25.0828 3.21612 24.4217 2.55496C23.7605 1.8938 22.9687 1.37782 22.0969 1.04C21.0765 0.656978 19.9986 0.449871 18.9089 0.427498C17.506 0.36479 17.0612 0.34729 13.5 0.34729C9.93873 0.34729 9.48227 0.34729 8.08956 0.427498C7.00042 0.450036 5.92299 0.657139 4.90311 1.04C4.03111 1.37759 3.23918 1.89348 2.57799 2.55467C1.9168 3.21586 1.4009 4.00779 1.06331 4.87979C0.679526 5.89936 0.472868 6.97704 0.452272 8.06625C0.389564 9.47062 0.370605 9.91542 0.370605 13.4767C0.370605 17.0379 0.370605 17.4929 0.452272 18.8871C0.474147 19.9779 0.679772 21.0542 1.06331 22.0765C1.40147 22.9482 1.91775 23.7398 2.57916 24.4007C3.24057 25.0616 4.03257 25.5773 4.90456 25.9148C5.92165 26.3132 6.99927 26.5351 8.09102 26.571C9.4954 26.6337 9.94019 26.6527 13.5014 26.6527C17.0627 26.6527 17.5191 26.6527 18.9119 26.571C20.0015 26.5496 21.0795 26.343 22.0998 25.96C22.9714 25.6218 23.763 25.1057 24.4241 24.4446C25.0852 23.7835 25.6014 22.9918 25.9396 22.1202C26.3231 21.0994 26.5287 20.0231 26.5506 18.9308C26.6133 17.5279 26.6323 17.0831 26.6323 13.5204C26.6294 9.95917 26.6294 9.50708 26.5477 8.11146V8.11146ZM13.4912 20.2112C9.76665 20.2112 6.74936 17.194 6.74936 13.4694C6.74936 9.74479 9.76665 6.7275 13.4912 6.7275C15.2793 6.7275 16.9941 7.4378 18.2585 8.70215C19.5228 9.9665 20.2331 11.6813 20.2331 13.4694C20.2331 15.2574 19.5228 16.9723 18.2585 18.2366C16.9941 19.5009 15.2793 20.2112 13.4912 20.2112V20.2112ZM20.5014 8.05021C19.6308 8.05021 18.9294 7.34729 18.9294 6.47812C18.9294 6.27177 18.97 6.06744 19.049 5.87679C19.1279 5.68615 19.2437 5.51292 19.3896 5.36701C19.5355 5.22109 19.7087 5.10535 19.8994 5.02638C20.09 4.94741 20.2944 4.90677 20.5007 4.90677C20.7071 4.90677 20.9114 4.94741 21.102 5.02638C21.2927 5.10535 21.4659 5.22109 21.6118 5.36701C21.7577 5.51292 21.8735 5.68615 21.9525 5.87679C22.0314 6.06744 22.0721 6.27177 22.0721 6.47812C22.0721 7.34729 21.3691 8.05021 20.5014 8.05021Z" fill="#FF0C0C" fill-opacity="0.78"/>
<path d="M13.4913 17.8487C15.91 17.8487 17.8707 15.888 17.8707 13.4694C17.8707 11.0507 15.91 9.09 13.4913 9.09C11.0727 9.09 9.11194 11.0507 9.11194 13.4694C9.11194 15.888 11.0727 17.8487 13.4913 17.8487Z" fill="#FF0C0C" fill-opacity="0.78"/>
</svg>
